<?xml version="1.0" encoding="utf-8"?>
<!-- Generator: Adobe Illustrator 19.2.1, SVG Export Plug-In . SVG Version: 6.00 Build 0)  -->
<svg version="1.1" id="Layer_1" xmlns="http://www.w3.org/2000/svg" xmlns:xlink="http://www.w3.org/1999/xlink" x="0px" y="0px"
	 viewBox="0 0 253 144" style="enable-background:new 0 0 253 144;" xml:space="preserve">
<style type="text/css">
	.st0{fill:#34495E;}
	.st1{fill:#0088CC;}
	.st2{fill:#ECF0F1;}
	.st3{fill:#FFFFFF;}
</style>
<g>
	<path id="XMLID_4543_" class="st0" d="M226.6,134h-202V5.3c0-2.7,2-5.3,4.7-5.3h192.8c2.7,0,4.5,2.6,4.5,5.3V134z"/>
	<rect id="XMLID_4542_" x="32.6" y="10" class="st1" width="187" height="114"/>
	<path id="XMLID_4539_" class="st0" d="M252.6,140v-5.4c0-1.3-1.1-2.6-2.4-2.6H2.5c-1.3,0-2.9,1.3-2.9,2.6v5.4h0.4c0,0,6.1,4,9.8,4
		h233.1C246.6,144,252.7,140,252.6,140L252.6,140z"/>
	<path id="XMLID_4538_" class="st2" d="M148.3,136h-43.9c-3.7,0-3.7-4-3.7-4H152C152,132,152,136,148.3,136z"/>
	<g id="XMLID_4530_">
		<path class="st3" d="M141.5,60.1c-0.5,0-1,0-1.5,0.1c-1.9-7.3-8.5-12.5-16.3-12.5c-9.3,0-16.8,7.4-16.8,16.6c0,0.1,0,0.2,0,0.2h0
			c-6.2,0-11.3,5.3-11.3,11.6c0,6.2,5.1,11.4,11.3,11.4l5.5,0.1l27.3,0l2.7,0c3.2,0,6.2-1.4,8.2-3.6c2.9-2.6,4.5-6.3,4.5-10.2
			C155.2,66.2,149.1,60.1,141.5,60.1z M120.7,78.8c-2.2,0-3.9-0.7-5.3-1.6l1.6-3.1c0.9,0.6,2.3,1.4,3.3,1.4c1,0,1.7-0.4,1.7-1.3
			c0-2-6.1-1.7-6.1-6.3c0-2.5,2-4.5,4.5-4.5c2.5,0,3.8,0.8,4.5,1.1l-1.1,3.3c-0.7-0.5-1.7-1-2.7-1c-0.7,0-1.2,0.5-1.2,1
			c0,1.5,6,1.6,6,6.1C126,76.6,124.5,78.8,120.7,78.8z M132.8,71.9l-1.7-2.7l-1.7,2.7l-2.7,0l3.1-4.6l-2.6-3.9l2.7,0l1.3,2.1
			l1.3-2.1l2.7,0l-2.6,3.9l3.1,4.6L132.8,71.9z"/>
	</g>
</g>
</svg>
