<?xml version="1.0" encoding="utf-8"?>
<!-- Generator: Adobe Illustrator 19.2.1, SVG Export Plug-In . SVG Version: 6.00 Build 0)  -->
<svg version="1.1" id="Layer_1" xmlns="http://www.w3.org/2000/svg" xmlns:xlink="http://www.w3.org/1999/xlink" x="0px" y="0px"
	 viewBox="0 0 233.1 162.1" style="enable-background:new 0 0 233.1 162.1;" xml:space="preserve">
<style type="text/css">
	.st0{fill:#CCCCCC;}
	.st1{opacity:0.71;fill:#E74C3C;}
	.st2{opacity:0.71;fill:#F1C40F;}
	.st3{opacity:0.71;fill:#2ECC71;}
	.st4{fill:#E6E6E6;}
	.st5{fill:#F7F7F7;}
	.st6{clip-path:url(#SVGID_2_);fill:#34495E;}
	.st7{fill:none;stroke:#34495E;stroke-miterlimit:10;}
	.st8{fill:none;stroke:#34495E;stroke-width:4;stroke-linecap:round;stroke-linejoin:round;stroke-miterlimit:10;}
	.st9{fill:#0088CC;}
	.st10{fill:#FFFFFF;}
</style>
<g>
	<path class="st0" d="M233.1,7H0.1V1.8C0.1,1,0.7,0,1.5,0h229.7c0.8,0,2,1,2,1.8V7z"/>
	<circle class="st1" cx="3.8" cy="4" r="1.4"/>
	<circle class="st2" cx="8.3" cy="4" r="1.4"/>
	<circle class="st3" cx="12.7" cy="4" r="1.4"/>
	<path class="st4" d="M48.5,2.8C48.4,2.4,48.1,2,47.6,2H21.2c-0.5,0-0.8,0.4-0.9,0.8l-1.2,3.7C19.1,6.8,18.6,7,18.6,7h31.7
		c0,0-0.5-0.2-0.6-0.5L48.5,2.8z"/>
	<path class="st5" d="M232.7,160.6c0,1-0.8,1.5-1.7,1.5H1.6c-0.9,0-1.6-0.5-1.6-1.5V13.4h232.7V160.6z"/>
	<g>
		<defs>
			<path id="SVGID_1_" d="M232.7,160.6c0,1-0.8,1.5-1.7,1.5H1.6c-0.9,0-1.6-0.5-1.6-1.5V13.4h232.7V160.6z"/>
		</defs>
		<clipPath id="SVGID_2_">
			<use xlink:href="#SVGID_1_"  style="overflow:visible;"/>
		</clipPath>
		<rect y="13.4" class="st6" width="41.7" height="171.3"/>
	</g>
	<rect x="0.1" y="7" class="st4" width="233" height="6"/>
	<line class="st7" x1="232.7" y1="27.8" x2="41.7" y2="27.8"/>
	<g>
		<line class="st8" x1="60.1" y1="54.4" x2="213.9" y2="54.4"/>
		<line class="st8" x1="60.1" y1="70.1" x2="213.9" y2="70.1"/>
		<line class="st8" x1="60.1" y1="85.7" x2="213.9" y2="85.7"/>
		<line class="st8" x1="60.1" y1="101.4" x2="213.9" y2="101.4"/>
		<line class="st8" x1="60.1" y1="117.1" x2="213.9" y2="117.1"/>
		<line class="st8" x1="60.1" y1="132.7" x2="213.9" y2="132.7"/>
	</g>
	<path class="st9" d="M71.2,24.9H52c-1.9,0-3.5-1.6-3.5-3.5v-1.6c0-1.9,1.6-3.5,3.5-3.5h19.1c1.9,0,3.5,1.6,3.5,3.5v1.6
		C74.7,23.4,73.1,24.9,71.2,24.9z"/>
	<path class="st9" d="M100.7,24.9H81.5c-1.9,0-3.5-1.6-3.5-3.5v-1.6c0-1.9,1.6-3.5,3.5-3.5h19.1c1.9,0,3.5,1.6,3.5,3.5v1.6
		C104.2,23.4,102.6,24.9,100.7,24.9z"/>
	<path class="st9" d="M130.2,24.9H111c-1.9,0-3.5-1.6-3.5-3.5v-1.6c0-1.9,1.6-3.5,3.5-3.5h19.1c1.9,0,3.5,1.6,3.5,3.5v1.6
		C133.6,23.4,132.1,24.9,130.2,24.9z"/>
	<g>
		<g>
			<g id="XMLID_4190_">
				<path class="st10" d="M9.8,29.2c-1.7,0-3-0.5-4-1.2L7,25.6c0.7,0.5,1.8,1,2.5,1c0.8,0,1.3-0.3,1.3-1c0-1.6-4.6-1.3-4.6-4.8
					c0-1.9,1.5-3.4,3.4-3.4c1.9,0,2.9,0.6,3.4,0.8l-0.8,2.5c-0.5-0.3-1.3-0.8-2-0.8c-0.5,0-0.9,0.4-0.9,0.7c0,1.1,4.6,1.2,4.6,4.7
					C13.9,27.5,12.7,29.2,9.8,29.2z M19.1,24l-1.3-2L16.4,24l-2.1,0l2.3-3.5l-2-3l2,0l1,1.6l1-1.6l2,0l-2,3l2.3,3.5L19.1,24z"/>
			</g>
		</g>
		<g>
			<path class="st10" d="M22.4,32.2h-1.6l-1.1-3.7l-1.1,3.7H17l-1.8-5.9h1.6l1.1,3.8l1.2-3.8h1.3l1.2,3.8l1-3.8h1.6L22.4,32.2z"/>
			<path class="st10" d="M26.3,32.3c-1.3,0-2.2-0.9-2.2-2c0-1.1,0.9-2,2.2-2c1.4,0,2.2,1.1,2.1,2.4h-2.9c0,0.3,0.3,0.7,0.7,0.7
				c0.3,0,0.6-0.2,0.7-0.5h1.4C28.2,31.8,27.4,32.3,26.3,32.3z M26.3,29.3c-0.4,0-0.7,0.3-0.7,0.5h1.5
				C27.1,29.6,26.8,29.3,26.3,29.3z"/>
			<path class="st10" d="M31.4,32.3c-0.1,0-0.6-0.1-0.8-0.3v0.2h-1.5v-6.3h1.5v2.7c0.2-0.1,0.6-0.2,0.8-0.2c1.4,0,2.2,0.9,2.2,2
				C33.5,31.4,32.7,32.3,31.4,32.3z M31.3,29.5c-0.5,0-0.8,0.4-0.8,0.8c0,0.4,0.4,0.8,0.8,0.8c0.4,0,0.8-0.4,0.8-0.8
				C32.1,29.9,31.7,29.5,31.3,29.5z"/>
		</g>
	</g>
</g>
</svg>
