<?xml version="1.0" encoding="utf-8"?>
<!-- Generator: Adobe Illustrator 19.2.1, SVG Export Plug-In . SVG Version: 6.00 Build 0)  -->
<svg version="1.1" id="Layer_1" xmlns="http://www.w3.org/2000/svg" xmlns:xlink="http://www.w3.org/1999/xlink" x="0px" y="0px"
	 viewBox="0 0 142 142" style="enable-background:new 0 0 142 142;" xml:space="preserve">
<style type="text/css">
	.st0{fill:#34495E;}
	.st1{fill:url(#SVGID_1_);}
	.st2{enable-background:new    ;}
	.st3{clip-path:url(#SVGID_3_);fill:#25AE60;}
	.st4{fill:#25AE60;}
	.st5{clip-path:url(#SVGID_5_);fill:#25AE60;}
	.st6{clip-path:url(#SVGID_7_);fill:#25AE60;}
	.st7{fill:#2BCC71;}
	.st8{clip-path:url(#SVGID_9_);fill:#25AE60;}
	.st9{clip-path:url(#SVGID_11_);fill:#25AE60;}
	.st10{clip-path:url(#SVGID_13_);fill:#25AE60;}
</style>
<g>
	<path class="st0" d="M142,71c0,0.1,0,0.3,0,0.4c-0.1,22.6-10.8,42.6-27.3,55.5c-12,9.4-27.2,15.1-43.7,15.1c-2.7,0-5.4-0.2-8-0.5
		c-35.4-4-63-34.1-63-70.5C0,31.8,31.8,0,71,0c35.6,0,65,26.1,70.2,60.2C141.7,63.7,142,67.3,142,71z"/>
	<g>
		
			<linearGradient id="SVGID_1_" gradientUnits="userSpaceOnUse" x1="10.123" y1="98.4967" x2="84.7824" y2="103.9463" gradientTransform="matrix(0.9986 5.230000e-02 -5.230000e-02 0.9986 2.6332 -3.4474)">
			<stop  offset="0" style="stop-color:#FFFFFF"/>
			<stop  offset="1" style="stop-color:#000000"/>
		</linearGradient>
		<path class="st1" d="M36.2,92.5L32.9,93c-1.3,0.2-2,0.8-1.5,1.2l12.1,12c0.2,0.2,0.5,0.3,0.9,0.4c0.6,0.1,1.5,0.2,2.3,0l3.3-0.5"
			/>
		<g class="st2">
			<defs>
				<path id="SVGID_2_" class="st2" d="M93.8,94.7l-9.6-9.5c1.3-0.1,2.4-1.3,2.4-2.6l9.6,9.5C96.2,93.4,95.1,94.6,93.8,94.7z"/>
			</defs>
			<use xlink:href="#SVGID_2_"  style="overflow:visible;fill:#25AE60;"/>
			<clipPath id="SVGID_3_">
				<use xlink:href="#SVGID_2_"  style="overflow:visible;"/>
			</clipPath>
			<path class="st3" d="M93.8,94.7l-9.6-9.5c0,0,0.1,0,0.1,0l9.6,9.5C93.9,94.7,93.8,94.7,93.8,94.7"/>
			<path class="st3" d="M93.9,94.7l-9.6-9.5c0.1,0,0.2,0,0.4-0.1l9.6,9.5C94.2,94.6,94,94.7,93.9,94.7"/>
			<path class="st3" d="M94.3,94.6l-9.6-9.5c0.2-0.1,0.4-0.1,0.5-0.2l9.6,9.5C94.6,94.5,94.5,94.6,94.3,94.6"/>
			<path class="st3" d="M94.8,94.4l-9.6-9.5c0.1-0.1,0.2-0.1,0.3-0.2l9.6,9.5C95,94.3,94.9,94.3,94.8,94.4"/>
			<path class="st3" d="M95.1,94.2l-9.6-9.5c0.1-0.1,0.1-0.1,0.2-0.2l9.6,9.5C95.2,94.1,95.2,94.2,95.1,94.2"/>
			<path class="st3" d="M95.3,94.1l-9.6-9.5c0.1,0,0.1-0.1,0.1-0.1l9.6,9.5C95.4,94,95.4,94,95.3,94.1"/>
			<path class="st3" d="M95.4,93.9l-9.6-9.5c0,0,0.1-0.1,0.1-0.1l9.6,9.5C95.5,93.8,95.5,93.9,95.4,93.9"/>
			<path class="st3" d="M95.6,93.8l-9.6-9.5c0,0,0.1-0.1,0.1-0.1l9.6,9.5C95.6,93.7,95.6,93.7,95.6,93.8"/>
			<path class="st3" d="M95.7,93.7L86,84.1c0,0,0.1-0.1,0.1-0.1l9.6,9.5C95.7,93.6,95.7,93.6,95.7,93.7"/>
			<path class="st3" d="M95.8,93.5L86.1,84c0,0,0.1-0.1,0.1-0.1l9.6,9.5C95.8,93.5,95.8,93.5,95.8,93.5"/>
			<path class="st3" d="M95.8,93.4l-9.6-9.5c0,0,0-0.1,0.1-0.1l9.6,9.5C95.9,93.3,95.9,93.4,95.8,93.4"/>
			<path class="st3" d="M95.9,93.3l-9.6-9.5c0,0,0-0.1,0.1-0.1l9.6,9.5C95.9,93.2,95.9,93.3,95.9,93.3"/>
			<path class="st3" d="M96,93.2l-9.6-9.5c0,0,0-0.1,0.1-0.1l9.6,9.5C96,93.1,96,93.1,96,93.2"/>
			<path class="st3" d="M96,93.1l-9.6-9.5c0,0,0-0.1,0-0.1l9.6,9.5C96.1,93,96,93,96,93.1"/>
			<path class="st3" d="M96.1,92.9l-9.6-9.5c0,0,0-0.1,0-0.1l9.6,9.5C96.1,92.8,96.1,92.9,96.1,92.9"/>
			<path class="st3" d="M96.1,92.8l-9.6-9.5c0,0,0-0.1,0-0.1l9.6,9.5C96.1,92.7,96.1,92.7,96.1,92.8"/>
			<path class="st3" d="M96.2,92.6l-9.6-9.5c0-0.1,0-0.1,0-0.2l9.6,9.5C96.2,92.5,96.2,92.6,96.2,92.6"/>
			<path class="st3" d="M96.2,92.5L86.5,83c0-0.1,0-0.1,0-0.2l9.6,9.5C96.2,92.4,96.2,92.4,96.2,92.5"/>
			<path class="st3" d="M96.2,92.3l-9.6-9.5c0-0.1,0-0.1,0-0.2l9.6,9.5C96.2,92.2,96.2,92.3,96.2,92.3"/>
			<path class="st3" d="M96.2,92.1l-9.6-9.5c0,0,0,0,0-0.1L96.2,92.1C96.2,92.1,96.2,92.1,96.2,92.1"/>
		</g>
		<polygon class="st4" points="96.2,88.7 86.6,79.2 101.2,77.9 110.8,87.4 		"/>
		<polygon class="st4" points="96.2,92.1 86.6,82.5 86.6,79.2 96.2,88.7 		"/>
		<polygon class="st4" points="57.9,97.9 48.2,88.3 84.2,85.2 93.8,94.7 		"/>
		<g class="st2">
			<defs>
				<path id="SVGID_4_" class="st2" d="M56.1,97.2c-0.1-0.1-0.3-0.3-0.5-0.5c-3-3-6.1-6-9.2-9.1c0.4,0.4,1.1,0.7,1.8,0.6l9.6,9.5
					C57.2,97.9,56.5,97.7,56.1,97.2z"/>
			</defs>
			<use xlink:href="#SVGID_4_"  style="overflow:visible;fill:#25AE60;"/>
			<clipPath id="SVGID_5_">
				<use xlink:href="#SVGID_4_"  style="overflow:visible;"/>
			</clipPath>
			<path class="st5" d="M56.1,97.2l-9.6-9.5c0,0,0.1,0.1,0.1,0.1L56.1,97.2C56.2,97.3,56.1,97.3,56.1,97.2"/>
			<path class="st5" d="M56.2,97.3l-9.6-9.5c0,0.1,0.1,0.1,0.1,0.1l9.6,9.5C56.3,97.4,56.3,97.4,56.2,97.3"/>
			<path class="st5" d="M56.4,97.4l-9.6-9.5c0,0,0.1,0.1,0.1,0.1l9.6,9.5C56.5,97.5,56.4,97.5,56.4,97.4"/>
			<path class="st5" d="M56.5,97.5L46.9,88c0,0,0.1,0.1,0.1,0.1l9.6,9.5C56.6,97.6,56.5,97.6,56.5,97.5"/>
			<path class="st5" d="M56.6,97.6L47,88.1c0,0,0.1,0,0.1,0.1l9.6,9.5C56.7,97.7,56.7,97.6,56.6,97.6"/>
			<path class="st5" d="M56.8,97.7l-9.6-9.5c0,0,0.1,0,0.1,0.1l9.6,9.5C56.9,97.7,56.8,97.7,56.8,97.7"/>
			<path class="st5" d="M56.9,97.7l-9.6-9.5c0,0,0.1,0,0.1,0l9.6,9.5C57,97.8,57,97.8,56.9,97.7"/>
			<path class="st5" d="M57.1,97.8l-9.6-9.5c0,0,0.1,0,0.2,0l9.6,9.5C57.2,97.8,57.1,97.8,57.1,97.8"/>
			<path class="st5" d="M57.2,97.8l-9.6-9.5c0,0,0.1,0,0.2,0l9.6,9.5C57.3,97.8,57.3,97.8,57.2,97.8"/>
			<path class="st5" d="M57.4,97.8l-9.6-9.5c0.1,0,0.1,0,0.2,0l9.6,9.5C57.5,97.9,57.5,97.9,57.4,97.8"/>
			<path class="st5" d="M57.6,97.9l-9.6-9.5c0.1,0,0.1,0,0.2,0l9.6,9.5C57.7,97.9,57.6,97.9,57.6,97.9"/>
			<path class="st5" d="M57.8,97.9l-9.6-9.5c0,0,0.1,0,0.1,0l9.6,9.5C57.8,97.9,57.8,97.9,57.8,97.9"/>
		</g>
		<g>
			<defs>
				<path id="SVGID_6_" d="M42.1,112.3l-9.6-9.5c-0.8-0.8-1.2-1.8-1.2-3l9.6,9.5C40.8,110.5,41.3,111.5,42.1,112.3z"/>
			</defs>
			<use xlink:href="#SVGID_6_"  style="overflow:visible;fill:#25AE60;"/>
			<clipPath id="SVGID_7_">
				<use xlink:href="#SVGID_6_"  style="overflow:visible;"/>
			</clipPath>
			<path class="st6" d="M42.1,112.3l-9.6-9.5c-0.7-0.7-1.1-1.6-1.2-2.7l9.6,9.5C40.9,110.7,41.4,111.6,42.1,112.3"/>
			<path class="st6" d="M40.9,109.6l-9.6-9.5c0-0.1,0-0.2,0-0.4l9.6,9.5C40.8,109.4,40.9,109.5,40.9,109.6"/>
		</g>
		<path class="st7" d="M110.8,87.4l0,15.7c0,2.5-2.1,4.8-4.6,5l-60.7,5.3c-2.6,0.2-4.6-1.7-4.6-4.2l0-15.7l14.6-1.3l0,3.4
			c0,1.3,1.1,2.3,2.4,2.2l35.9-3.1c1.3-0.1,2.4-1.3,2.4-2.6l0-3.4L110.8,87.4z"/>
		<polygon class="st4" points="40.9,93.6 31.2,84 45.8,82.7 55.5,92.3 		"/>
		<polygon class="st4" points="40.9,109.3 31.2,99.7 31.2,84 40.9,93.6 		"/>
		<polygon class="st7" points="110.7,60.9 110.8,84.1 96.2,85.3 96.1,62.2 		"/>
		<polygon class="st4" points="96.2,85.3 86.6,75.8 86.5,52.7 96.1,62.2 		"/>
		<polygon class="st4" points="96.1,62.2 86.5,52.7 101.1,51.4 110.7,60.9 		"/>
		<polygon class="st7" points="55.4,65.8 55.5,88.9 40.9,90.2 40.8,67.1 		"/>
		<polygon class="st4" points="40.9,90.2 31.2,80.6 31.2,57.5 40.8,67.1 		"/>
		<polygon class="st4" points="40.8,67.1 31.2,57.5 45.7,56.3 55.4,65.8 		"/>
		<polygon class="st4" points="96.2,58.8 86.6,49.2 86.6,46.3 96.2,55.9 		"/>
		<g class="st2">
			<defs>
				<path id="SVGID_8_" class="st2" d="M85.9,44.8c3.2,3.2,6.4,6.4,9.6,9.5c0.4,0.4,0.6,1,0.6,1.6l-9.6-9.5
					C86.6,45.7,86.3,45.2,85.9,44.8z"/>
			</defs>
			<use xlink:href="#SVGID_8_"  style="overflow:visible;fill:#25AE60;"/>
			<clipPath id="SVGID_9_">
				<use xlink:href="#SVGID_8_"  style="overflow:visible;"/>
			</clipPath>
			<path class="st8" d="M96.2,55.9l-9.6-9.5c0-0.1,0-0.1,0-0.2l9.6,9.5C96.2,55.7,96.2,55.8,96.2,55.9"/>
			<path class="st8" d="M96.2,55.7l-9.6-9.5c0-0.6-0.3-1-0.6-1.4l9.6,9.5C95.9,54.6,96.2,55.1,96.2,55.7"/>
		</g>
		<g>
			<defs>
				<path id="SVGID_10_" d="M100,29.7c0.6,0.6,1.3,1.3,1.9,1.9c2.6,2.5,5.1,5.1,7.7,7.6c-0.8-0.8-2-1.3-3.4-1.2l-9.6-9.5
					C97.9,28.4,99.1,28.9,100,29.7z"/>
			</defs>
			<use xlink:href="#SVGID_10_"  style="overflow:visible;fill:#25AE60;"/>
			<clipPath id="SVGID_11_">
				<use xlink:href="#SVGID_10_"  style="overflow:visible;"/>
			</clipPath>
			<path class="st9" d="M106.2,38l-9.6-9.5c0.1,0,0.1,0,0.2,0l9.6,9.5C106.4,38,106.3,38,106.2,38"/>
			<path class="st9" d="M106.4,38l-9.6-9.5c0.1,0,0.3,0,0.4,0l9.6,9.5C106.7,38,106.5,38,106.4,38"/>
			<path class="st9" d="M106.8,38l-9.6-9.5c0.1,0,0.2,0,0.3,0l9.6,9.5C107,38,106.9,38,106.8,38"/>
			<path class="st9" d="M107.1,38.1l-9.6-9.5c0.1,0,0.2,0,0.3,0l9.6,9.5C107.3,38.1,107.2,38.1,107.1,38.1"/>
			<path class="st9" d="M107.4,38.1l-9.6-9.5c0.1,0,0.2,0,0.3,0.1l9.6,9.5C107.6,38.1,107.5,38.1,107.4,38.1"/>
			<path class="st9" d="M107.7,38.2l-9.6-9.5c0.1,0,0.2,0.1,0.3,0.1l9.6,9.5C107.9,38.2,107.8,38.2,107.7,38.2"/>
			<path class="st9" d="M108,38.3l-9.6-9.5c0.1,0,0.2,0.1,0.3,0.1l9.6,9.5C108.2,38.3,108.1,38.3,108,38.3"/>
			<path class="st9" d="M108.3,38.4l-9.6-9.5c0.1,0,0.2,0.1,0.3,0.1l9.6,9.5C108.5,38.4,108.4,38.4,108.3,38.4"/>
			<path class="st9" d="M108.6,38.5L98.9,29c0.1,0.1,0.2,0.1,0.3,0.2l9.6,9.5C108.8,38.6,108.7,38.5,108.6,38.5"/>
			<path class="st9" d="M108.8,38.6l-9.6-9.5c0.1,0.1,0.2,0.1,0.3,0.2l9.6,9.5C109,38.8,108.9,38.7,108.8,38.6"/>
			<path class="st9" d="M109.1,38.8l-9.6-9.5c0.1,0.1,0.2,0.1,0.3,0.2l9.6,9.5C109.3,39,109.2,38.9,109.1,38.8"/>
			<path class="st9" d="M109.4,39.1l-9.6-9.5c0.1,0.1,0.1,0.1,0.2,0.2l9.6,9.5C109.6,39.2,109.5,39.1,109.4,39.1"/>
		</g>
		<polygon class="st4" points="40.9,63.6 31.2,54.1 31.3,38.8 40.9,48.3 		"/>
		<polygon class="st4" points="45.6,43.3 35.9,33.8 96.6,28.5 106.2,38 		"/>
		<path class="st7" d="M45.6,43.3l60.7-5.3c2.6-0.2,4.6,1.7,4.6,4.2l-0.1,15.2l-14.6,1.3l0-2.9c0-1.3-1.1-2.3-2.4-2.2l-35.9,3.1
			c-1.3,0.1-2.4,1.3-2.4,2.6l0,2.9l-14.6,1.3l0-15.2C40.9,45.8,43,43.6,45.6,43.3z"/>
		<g>
			<defs>
				<path id="SVGID_12_" d="M40.9,48.3l-9.6-9.5c0-2.6,2.1-4.8,4.6-5l9.6,9.5C43,43.6,40.9,45.8,40.9,48.3z"/>
			</defs>
			<use xlink:href="#SVGID_12_"  style="overflow:visible;fill:#25AE60;"/>
			<clipPath id="SVGID_13_">
				<use xlink:href="#SVGID_12_"  style="overflow:visible;"/>
			</clipPath>
			<path class="st10" d="M40.9,48.3l-9.6-9.5c0,0,0-0.1,0-0.1L40.9,48.3C40.9,48.3,40.9,48.3,40.9,48.3"/>
			<path class="st10" d="M40.9,48.2l-9.6-9.5c0-0.1,0-0.2,0-0.4l9.6,9.5C40.9,48,40.9,48.1,40.9,48.2"/>
			<path class="st10" d="M40.9,47.9l-9.6-9.5c0-0.1,0-0.2,0-0.3l9.6,9.5C41,47.7,41,47.8,40.9,47.9"/>
			<path class="st10" d="M41,47.5L31.3,38c0-0.1,0-0.2,0.1-0.3l9.6,9.5C41,47.3,41,47.5,41,47.5"/>
			<path class="st10" d="M41,47.3l-9.6-9.5c0-0.1,0-0.2,0.1-0.3l9.6,9.5C41.1,47.1,41.1,47.2,41,47.3"/>
			<path class="st10" d="M41.1,47l-9.6-9.5c0-0.1,0.1-0.2,0.1-0.3l9.6,9.5C41.2,46.8,41.1,46.9,41.1,47"/>
			<path class="st10" d="M41.2,46.7l-9.6-9.5c0-0.1,0.1-0.2,0.1-0.2l9.6,9.5C41.3,46.6,41.2,46.7,41.2,46.7"/>
			<path class="st10" d="M41.3,46.5l-9.6-9.5c0-0.1,0.1-0.2,0.1-0.2l9.6,9.5C41.4,46.3,41.3,46.4,41.3,46.5"/>
			<path class="st10" d="M41.4,46.2l-9.6-9.5c0-0.1,0.1-0.2,0.1-0.2l9.6,9.5C41.5,46.1,41.4,46.2,41.4,46.2"/>
			<path class="st10" d="M41.5,46l-9.6-9.5c0-0.1,0.1-0.2,0.1-0.2l9.6,9.5C41.6,45.9,41.6,45.9,41.5,46"/>
			<path class="st10" d="M41.7,45.8L32,36.2c0-0.1,0.1-0.2,0.1-0.2l9.6,9.5C41.8,45.6,41.7,45.7,41.7,45.8"/>
			<path class="st10" d="M41.8,45.6L32.2,36c0.1-0.1,0.1-0.2,0.2-0.2l9.6,9.5C41.9,45.4,41.9,45.5,41.8,45.6"/>
			<path class="st10" d="M42,45.3l-9.6-9.5c0.1-0.1,0.1-0.2,0.2-0.2l9.6,9.5C42.1,45.2,42,45.2,42,45.3"/>
			<path class="st10" d="M42.2,45.1l-9.6-9.5c0.1-0.1,0.1-0.2,0.2-0.2l9.6,9.5C42.3,44.9,42.2,45,42.2,45.1"/>
			<path class="st10" d="M42.4,44.8l-9.6-9.5c0.1-0.1,0.2-0.2,0.3-0.3l9.6,9.5C42.6,44.7,42.5,44.8,42.4,44.8"/>
			<path class="st10" d="M42.7,44.6L33,35c0.1-0.1,0.2-0.2,0.4-0.3l9.6,9.5C42.9,44.4,42.8,44.5,42.7,44.6"/>
			<path class="st10" d="M43,44.3l-9.6-9.5c0.2-0.1,0.4-0.3,0.6-0.4l9.6,9.5C43.4,44,43.2,44.2,43,44.3"/>
			<path class="st10" d="M43.6,43.9L34,34.4c0.3-0.2,0.7-0.3,1-0.4l9.6,9.5C44.3,43.6,43.9,43.7,43.6,43.9"/>
			<path class="st10" d="M44.6,43.5L35,34c0.2-0.1,0.5-0.1,0.7-0.1l9.6,9.5C45.1,43.4,44.8,43.4,44.6,43.5"/>
			<path class="st10" d="M45.3,43.4l-9.6-9.5c0.1,0,0.2,0,0.2,0l9.6,9.5C45.5,43.3,45.4,43.3,45.3,43.4"/>
		</g>
	</g>
</g>
</svg>
