<?xml version="1.0" encoding="utf-8"?>
<!-- Generator: Adobe Illustrator 19.2.1, SVG Export Plug-In . SVG Version: 6.00 Build 0)  -->
<svg version="1.1" id="Layer_1" xmlns="http://www.w3.org/2000/svg" xmlns:xlink="http://www.w3.org/1999/xlink" x="0px" y="0px"
	 viewBox="0 0 173.6 194.7" style="enable-background:new 0 0 173.6 194.7;" xml:space="preserve">
<style type="text/css">
	.st0{fill:#3498DB;}
	.st1{fill:#51B0E5;}
	.st2{fill:#1D78AA;}
</style>
<g>
	<polygon class="st0" points="173.6,108 86.8,160.2 0,108 86.8,60.5 	"/>
	<polygon class="st0" points="173.6,47.5 86.8,99.7 0,47.5 86.8,0 	"/>
	<polygon class="st1" points="139.9,48.4 86.8,80.3 33.8,48.4 86.8,19.4 	"/>
	<polygon class="st1" points="86.8,194.7 173.6,142.6 173.6,108 86.8,160.2 	"/>
	<polygon class="st2" points="86.8,194.7 0,142.6 0,108 86.8,160.2 	"/>
	<polygon class="st1" points="86.8,143.6 173.6,91.4 173.6,47.5 86.8,99.7 	"/>
	<polygon class="st2" points="86.8,143.6 0,91.4 0,47.5 86.8,99.7 	"/>
	<polygon class="st2" points="86.8,19.4 86.8,80.3 33.8,48.4 	"/>
</g>
</svg>
