<?xml version="1.0" encoding="utf-8"?>
<!-- Generator: Adobe Illustrator 19.2.1, SVG Export Plug-In . SVG Version: 6.00 Build 0)  -->
<svg version="1.1" id="Layer_1" xmlns="http://www.w3.org/2000/svg" xmlns:xlink="http://www.w3.org/1999/xlink" x="0px" y="0px"
	 viewBox="0 0 142 142" style="enable-background:new 0 0 142 142;" xml:space="preserve">
<style type="text/css">
	.st0{fill:#34495E;}
	.st1{fill:#2BCC71;}
	.st2{fill:#25AE60;}
	.st3{fill:#28E574;}
	.st4{fill:#FFFFFF;}
	.st5{opacity:0.6;}
	.st6{fill:#939598;}
	.st7{opacity:0.1;}
	.st8{fill:#BCBEC0;}
	.st9{opacity:0.4;}
	.st10{opacity:0.7;fill:#FFFFFF;}
	.st11{opacity:0.4;fill:#231F20;}
	.st12{opacity:0.5;fill:#231F20;}
	.st13{opacity:0.3;fill:#231F20;}
</style>
<g>
	<path class="st0" d="M142,71c0,0.1,0,0.3,0,0.4c-0.1,22.6-10.8,42.6-27.3,55.5c-12,9.4-27.2,15.1-43.7,15.1c-2.7,0-5.4-0.2-8-0.5
		c-35.4-4-63-34.1-63-70.5C0,31.8,31.8,0,71,0c35.6,0,65,26.1,70.2,60.2C141.7,63.7,142,67.3,142,71z"/>
	<path class="st1" d="M71,113.5c-1,0-1.9-0.3-2.7-1L50.2,96.7c-8.7-7.5-13.6-18.5-13.6-29.9v-25c0-1.8,1.2-3.4,2.9-3.9l30.4-9.2
		c0.4-0.1,0.8-0.2,1.2-0.2s0.8,0.1,1.2,0.2l30.4,9.2c1.7,0.5,2.9,2.1,2.9,3.9v25c0,11.5-5,22.4-13.6,29.9l-18.1,15.8
		C72.9,113.2,72,113.5,71,113.5z"/>
	<path class="st2" d="M71,32.6l-30.4,9.2v25c0,10.3,4.5,20.1,12.2,26.9L71,109.4l18.1-15.8c7.8-6.8,12.2-16.6,12.2-26.9v-25L71,32.6
		z"/>
	<g>
		<g>
			<g>
				<path class="st1" d="M84.1,83.5c0,1-0.8,1.9-1.9,1.9H59.8c-1,0-1.9-0.8-1.9-1.9V65.2h26.2V83.5z"/>
				<path class="st3" d="M60.4,65.2h-2.5v18.3c0,1,0.8,1.9,1.9,1.9h0.6V65.2z"/>
				<path class="st3" d="M81.2,65.2v20.2h1c1,0,1.9-0.8,1.9-1.9V65.2H81.2z"/>
				<path class="st2" d="M84.1,65.1c0,1-0.8,1.9-1.9,1.9H59.8c-1,0-1.9-0.8-1.9-1.9v-0.2c0-1,0.8-1.9,1.9-1.9h22.4
					c1,0,1.9,0.8,1.9,1.9V65.1z"/>
				<path class="st4" d="M82.2,66.8H59.8c-1,0-1.9-0.8-1.9-1.9v0.2c0,1,0.8,1.9,1.9,1.9h22.4c1,0,1.9-0.8,1.9-1.9v-0.2
					C84.1,66,83.2,66.8,82.2,66.8z"/>
			</g>
			<ellipse class="st5" cx="63.4" cy="65" rx="2.6" ry="0.9"/>
			<ellipse class="st5" cx="78.6" cy="65" rx="2.6" ry="0.9"/>
			<g>
				<path class="st6" d="M78.6,57.1v8.9c-0.7,0-1.3-0.1-1.8-0.3v-8.6c0-1.8-0.6-3.3-1.8-4.4c-1-0.9-2.5-1.5-4-1.5
					c-2.9,0-5.8,1.8-5.8,5.8v8.6c-0.5,0.2-1.1,0.3-1.8,0.3v-8.9C63.4,46.9,78.6,46.9,78.6,57.1z"/>
				<path class="st7" d="M65.7,54.5c0.9-2.2,3.1-3.3,5.3-3.3c1.5,0,3,0.5,4,1.5c0.6,0.5,1,1.1,1.3,1.8h1.9c-2.1-6.8-12.4-6.8-14.5,0
					H65.7z"/>
				<path class="st4" d="M80.4,57.1v8.6c-0.5,0.2-1.1,0.3-1.8,0.3v-8.9c0-10.2-15.2-10.2-15.2,0v8.9c-0.7,0-1.3-0.1-1.8-0.3v-8.6
					c0-6.2,4.7-9.4,9.4-9.4C75.7,47.6,80.4,50.9,80.4,57.1z"/>
			</g>
			<g>
				<path class="st8" d="M72.2,45.2c0.4,0,0.7,0.3,0.7,0.7v6.4c0,0.4-0.3,0.7-0.7,0.7h-2.1c-0.4,0-0.7-0.3-0.7-0.7V46
					c0-0.4,0.3-0.7,0.7-0.7H72.2z"/>
				<path class="st9" d="M69.4,51.4v0.9c0,0.4,0.3,0.7,0.7,0.7h2.1c0.4,0,0.7-0.3,0.7-0.7v-0.9H69.4z"/>
				<path class="st10" d="M72.9,47.7V46c0-0.4-0.3-0.7-0.7-0.7h-2.1c-0.4,0-0.7,0.3-0.7,0.7v1.7H72.9z"/>
				<path class="st9" d="M71.5,45.2V53c0,0,0,0.1,0,0.1h-0.7c0,0,0-0.1,0-0.1v-7.8H71.5z"/>
				<path class="st9" d="M71.3,45.2V53c0,0,0,0.1,0,0.1H71v-7.9H71.3z"/>
			</g>
			<g>
				<path class="st11" d="M64.8,72.7c2.2,0,2.2-3.1,0-3.1h-0.9v12.6h0.9c2.2,0,2.2-3.1,0-3.1c2.2,0,2.2-3.1,0-3.1
					C67,75.8,67,72.7,64.8,72.7z"/>
				<path class="st8" d="M64.6,72.7c-2.2,0-4.5,0-6.7,0c0-1,0-2.1,0-3.1c2.2,0,4.5,0,6.7,0C66.7,69.5,66.7,72.7,64.6,72.7z"/>
				<path class="st8" d="M64.6,75.8c-2.2,0-4.5,0-6.7,0c0-1,0-2.1,0-3.1c2.2,0,4.5,0,6.7,0C66.7,72.7,66.7,75.8,64.6,75.8z"/>
				<path class="st8" d="M64.6,79c-2.2,0-4.5,0-6.7,0c0-1,0-2.1,0-3.1c2.2,0,4.5,0,6.7,0C66.7,75.8,66.7,79,64.6,79z"/>
				<path class="st8" d="M64.6,82.1c-2.2,0-4.5,0-6.7,0c0-1,0-2.1,0-3.1c2.2,0,4.5,0,6.7,0C66.7,79,66.7,82.1,64.6,82.1z"/>
				<rect x="57.9" y="69.5" class="st10" width="2.5" height="3.1"/>
				<rect x="57.9" y="72.7" class="st10" width="2.5" height="3.1"/>
				<rect x="57.9" y="75.8" class="st10" width="2.5" height="3.1"/>
				<rect x="57.9" y="79" class="st10" width="2.5" height="3.1"/>
				<path class="st11" d="M57.9,72.4v0.3h6.7c0.4,0,0.7-0.1,1-0.3H57.9z"/>
				<path class="st12" d="M57.9,72.5v0.1h6.7c0.3,0,0.5-0.1,0.7-0.1H57.9z"/>
				<path class="st11" d="M57.9,75.5v0.3h6.7c0.4,0,0.8-0.1,1-0.3H57.9z"/>
				<path class="st12" d="M57.9,75.7v0.2h6.7c0.3,0,0.5-0.1,0.7-0.2H57.9z"/>
				<path class="st11" d="M57.9,78.5V79h6.7c0.5,0,0.9-0.2,1.1-0.5H57.9z"/>
				<path class="st12" d="M57.9,78.8V79h6.7c0.3,0,0.6-0.1,0.8-0.2H57.9z"/>
				<path class="st11" d="M57.9,81.8v0.3h6.7c0.4,0,0.8-0.1,1-0.3H57.9z"/>
				<path class="st12" d="M57.9,82v0.2h6.7c0.3,0,0.5-0.1,0.7-0.2H57.9z"/>
				<path class="st13" d="M64.6,69.5L64.6,69.5l-0.1,3.1h0.1C66.7,72.7,66.7,69.5,64.6,69.5z"/>
				<path class="st13" d="M64.6,72.7L64.6,72.7l-0.1,3.1h0.1C66.7,75.8,66.7,72.7,64.6,72.7z"/>
				<path class="st13" d="M64.6,75.8L64.6,75.8L64.5,79h0.1C66.7,79,66.7,75.8,64.6,75.8z"/>
				<path class="st13" d="M64.6,79L64.6,79l-0.1,3.1h0.1C66.7,82.1,66.7,79,64.6,79z"/>
			</g>
		</g>
	</g>
</g>
</svg>
