<?xml version="1.0" encoding="utf-8"?>
<!-- Generator: Adobe Illustrator 19.2.1, SVG Export Plug-In . SVG Version: 6.00 Build 0)  -->
<svg version="1.1" id="Layer_1" xmlns="http://www.w3.org/2000/svg" xmlns:xlink="http://www.w3.org/1999/xlink" x="0px" y="0px"
	 viewBox="0 0 137.2 197.9" style="enable-background:new 0 0 137.2 197.9;" xml:space="preserve">
<style type="text/css">
	.st0{fill:#3498DB;}
	.st1{fill:#1D78AA;}
	.st2{fill:#51B0E5;}
</style>
<g id="XMLID_4676_">
	<g id="XMLID_4677_">
		<g id="XMLID_4685_">
			<polygon id="XMLID_4691_" class="st0" points="0,39.7 22.9,52.9 68.6,26.4 68.6,0 			"/>
			<polygon id="XMLID_4690_" class="st1" points="22.9,52.9 22.9,171.7 0,158.5 0,39.7 			"/>
			<polygon id="XMLID_4689_" class="st2" points="68.6,26.4 68.6,66.2 45.7,79.2 45.7,158.5 22.8,171.7 22.9,52.9 			"/>
			<g id="XMLID_4686_">
				<polygon id="XMLID_4688_" class="st0" points="45.7,131.8 22.9,145.1 68.6,171.4 69.1,145.5 				"/>
				<polygon id="XMLID_4687_" class="st1" points="68.6,171.4 68.6,197.9 0,158.5 22.9,145.1 				"/>
			</g>
		</g>
		<g id="XMLID_4678_">
			<polygon id="XMLID_4684_" class="st0" points="137.2,39.7 114.4,52.9 68.6,26.4 68.6,0 			"/>
			<polygon id="XMLID_4683_" class="st2" points="114.4,52.9 114.4,171.7 137.2,158.5 137.2,39.7 			"/>
			<polygon id="XMLID_4682_" class="st1" points="68.6,26.4 68.6,66.2 91.5,79.2 91.5,158.5 114.4,171.7 114.4,52.9 			"/>
			<g id="XMLID_4679_">
				<polygon id="XMLID_4681_" class="st0" points="91.5,131.8 114.4,145.1 68.6,171.4 68.7,145.1 				"/>
				<polygon id="XMLID_4680_" class="st2" points="68.6,171.4 68.6,197.9 137.2,158.5 114.4,145.1 				"/>
			</g>
		</g>
	</g>
</g>
</svg>
