<?xml version="1.0" encoding="utf-8"?>
<!-- Generator: Adobe Illustrator 19.2.1, SVG Export Plug-In . SVG Version: 6.00 Build 0)  -->
<svg version="1.1" id="Layer_1" xmlns="http://www.w3.org/2000/svg" xmlns:xlink="http://www.w3.org/1999/xlink" x="0px" y="0px"
	 viewBox="0 0 142 142" style="enable-background:new 0 0 142 142;" xml:space="preserve">
<style type="text/css">
	.st0{fill:#34495E;}
	.st1{fill:#2BCC71;}
	.st2{fill:#25AE60;}
</style>
<g>
	<path class="st0" d="M142,71c0,0.1,0,0.3,0,0.4c-0.1,22.6-10.8,42.6-27.3,55.5c-12,9.4-27.2,15.1-43.7,15.1c-2.7,0-5.4-0.2-8-0.5
		c-35.4-4-63-34.1-63-70.5C0,31.8,31.8,0,71,0c35.6,0,65,26.1,70.2,60.2C141.7,63.7,142,67.3,142,71z"/>
	<g>
		<rect x="59.5" y="23.5" class="st1" width="23" height="22.8"/>
		<rect x="64.2" y="28.5" class="st2" width="13.6" height="13.5"/>
		<g>
			<rect x="28.5" y="90.9" class="st1" width="16.5" height="16.4"/>
			<rect x="62.7" y="90.9" class="st1" width="16.5" height="16.4"/>
			<rect x="97" y="90.9" class="st1" width="16.5" height="16.4"/>
		</g>
		<polygon class="st1" points="106.1,64.7 71.9,64.7 71.9,46.4 70.1,46.4 70.1,64.7 35.9,64.7 35.9,90.9 37.7,90.9 37.7,66.5 
			70.1,66.5 70.1,90.9 71.9,90.9 71.9,66.5 104.4,66.5 104.4,90.9 106.1,90.9 106.1,65.6 		"/>
		<rect x="32.3" y="94.6" class="st2" width="9" height="8.9"/>
		<rect x="66.5" y="94.6" class="st2" width="9" height="8.9"/>
		<rect x="100.7" y="94.6" class="st2" width="9" height="8.9"/>
	</g>
</g>
</svg>
